# Blender v2.67 (sub 0) OBJ File: 'face.blend'
# www.blender.org
mtllib sphere.mtl
o Head_Cube
v 0.744835 -0.839075 -0.543290
v 0.643944 -1.546624 0.954329
v 1.000000 0.684459 -0.761188
v 0.783062 0.680303 1.000001
v 0.790208 -1.118071 -0.057497
v 1.000000 0.041515 -0.884862
v 0.000000 -1.753571 1.000000
v 1.000000 0.000000 1.000000
v 0.922566 0.845133 0.000000
v 1.219395 -0.025811 0.000000
v 0.627043 -1.823638 -0.677321
v 0.714740 -1.823638 -0.238715
v -0.744835 -0.839075 -0.543290
v -0.643944 -1.546624 0.954329
v -1.000000 0.684459 -0.761188
v -0.783062 0.680303 1.000001
v -0.790208 -1.118071 -0.057497
v -0.000000 -0.922567 -0.703171
v -1.000000 0.041515 -0.884862
v -1.000000 0.000000 1.000000
v -0.922566 0.845133 0.000000
v -0.000000 1.000000 -1.000000
v 0.000001 1.000000 1.000000
v 0.000000 -1.425228 0.133056
v 0.000000 1.193584 0.025811
v -1.219395 -0.025811 0.000000
v 0.000000 0.000000 1.134431
v -0.000000 -0.025811 -1.193584
v -0.627043 -1.823638 -0.677321
v -0.714740 -1.823638 -0.238715
v 0.000000 -1.867203 -0.928774
v 0.000000 -1.867203 0.050575
vt 0.918638 0.562189
vt 0.889676 0.653903
vt 0.795414 0.607627
vt 0.818685 0.536325
vt 0.971795 0.419841
vt 0.835457 0.374753
vt 0.788860 0.293245
vt 0.944314 0.276530
vt 0.840235 0.777298
vt 0.717013 0.683986
vt 0.425299 0.395598
vt 0.514443 0.312460
vt 0.578927 0.426358
vt 0.466183 0.477225
vt 0.243242 0.362663
vt 0.362871 0.376570
vt 0.338364 0.485074
vt 0.185109 0.416713
vt 0.364536 0.531299
vt 0.420032 0.796930
vt 0.247599 0.794475
vt 0.251165 0.493974
vt 0.381632 0.912773
vt 0.247598 0.966926
vt 0.383593 0.252178
vt 0.242545 0.254799
vt 0.140122 0.321754
vt 0.126676 0.359066
vt 0.043721 0.360691
vt 0.111688 0.252178
vt 0.054547 0.427360
vt 0.707470 0.501755
vt 0.605659 0.484599
vt 0.613496 0.410006
vt 0.718436 0.406203
vt 0.573061 0.308309
vt 0.723628 0.273374
vt 0.200398 0.147030
vt 0.144068 0.218874
vt 0.043721 0.146560
vt 0.129609 0.047797
vt 0.697940 0.653405
vt 0.555068 0.638960
vt 0.385367 0.151035
vt 0.431563 0.215585
vt 0.267759 0.252036
vt 0.265365 0.140825
vt 0.075041 0.792859
vt 0.247484 0.794563
vt 0.243327 0.966964
vt 0.110637 0.909595
vt 0.269847 0.014798
vt 0.407543 0.045473
vt 0.494570 0.131496
vt 0.536299 0.068981
vt 0.581279 0.188861
vt 0.500311 0.170738
vt 0.557385 0.252036
vt 0.614392 0.773043
vt 0.479277 0.694372
vt 0.136927 0.528644
vn 0.999023 -0.042055 -0.012604
vn 0.716605 0.697012 0.024903
vn 0.545366 0.511826 0.663747
vn 0.731193 0.019318 0.681875
vn 0.913785 -0.402692 0.052919
vn 0.571429 -0.664205 0.481948
vn 0.000000 -0.865963 0.500107
vn 0.000000 -0.897183 0.441603
vn 0.000000 0.999878 0.015290
vn 0.000000 0.733482 0.679678
vn 0.691031 0.517014 -0.505112
vn 0.000000 0.719932 -0.693991
vn 0.724509 -0.266274 -0.635701
vn 0.718802 -0.092837 -0.688955
vn 0.000000 0.012085 0.999908
vn 0.000000 -0.146977 -0.989135
vn 0.000000 -0.137730 -0.990448
vn 0.588031 -0.575274 -0.568529
vn 0.695212 -0.639637 0.327891
vn 0.000000 -0.733726 0.679403
vn 0.000000 -0.578143 -0.815912
vn -0.999023 -0.042055 -0.012604
vn -0.731193 0.019318 0.681875
vn -0.545366 0.511826 0.663747
vn -0.716605 0.697012 0.024903
vn -0.691031 0.517014 -0.505112
vn -0.913785 -0.402692 0.052919
vn -0.571429 -0.664205 0.481948
vn -0.724509 -0.266274 -0.635701
vn -0.718802 -0.092837 -0.688955
vn -0.588031 -0.575274 -0.568529
vn -0.695212 -0.639637 0.327891
usemtl Head
s 1
f 10/1/1 9/2/2 4/3/3 8/4/4
f 5/5/5 2/6/6 7/7/7 24/8/8
f 9/2/2 25/9/9 23/10/10 4/3/3
f 3/11/11 22/12/12 25/13/9 9/14/2
f 5/5/5 10/1/1 8/4/4 2/6/6
f 1/15/13 6/16/14 10/17/1 5/18/5
f 6/16/14 3/11/11 9/14/2 10/17/1
f 2/19/6 8/20/4 27/21/15 7/22/7
f 8/20/4 4/23/3 23/24/10 27/21/15
f 3/11/11 6/16/14 28/25/16 22/12/12
f 6/16/14 1/15/13 18/26/17 28/25/16
f 11/27/18 12/28/19 32/29/20 31/30/21
f 1/15/13 5/18/5 12/28/19 11/27/18
f 18/26/17 1/15/13 11/27/18 31/30/21
f 5/18/5 24/31/8 32/29/20 12/28/19
f 26/32/22 20/33/23 16/34/24 21/35/25
f 21/35/25 16/34/24 23/36/10 25/37/9
f 15/38/26 21/39/25 25/40/9 22/41/12
f 17/42/27 14/43/28 20/33/23 26/32/22
f 13/44/29 17/45/27 26/46/22 19/47/30
f 19/47/30 26/46/22 21/39/25 15/38/26
f 20/48/23 27/49/15 23/50/10 16/51/24
f 15/38/26 22/41/12 28/52/16 19/47/30
f 19/47/30 28/52/16 18/53/17 13/44/29
f 29/54/31 31/55/21 32/56/20 30/57/32
f 13/44/29 29/54/31 30/57/32 17/45/27
f 18/53/17 31/55/21 29/54/31 13/44/29
f 17/45/27 30/57/32 32/56/20 24/58/8
f 17/42/27 24/59/8 7/60/7 14/43/28
f 14/61/28 7/22/7 27/49/15 20/48/23
